<svg xmlns="http://www.w3.org/2000/svg" version="1.1" xmlns:xlink="http://www.w3.org/1999/xlink" xmlns:svgjs="http://svgjs.com/svgjs" width="1728" height="1117" preserveAspectRatio="none" viewBox="0 0 1728 1117"><g mask="url(&quot;#SvgjsMask1007&quot;)" fill="none"><path d="M1785.6000000000004 1117L0 1117 L0 899.96Q40.78 854.34, 86.4 895.11Q144.76 809.47, 230.4 867.83Q297.59 848.62, 316.8 915.81Q432.84 887.85, 460.8 1003.88Q512.44 969.12, 547.2 1020.75Q565.94 953.09, 633.6 971.82Q669.25 921.07, 720 956.72Q761.33 854.05, 864 895.37Q902.06 789.43, 1008 827.49Q1066.12 799.21, 1094.4 857.33Q1217.67 894.2, 1180.8000000000002 1017.47Q1137.69 887.95, 1267.2000000000003 844.84Q1386.69 820.33, 1411.2000000000003 939.82Q1482.2 924.42, 1497.6000000000004 995.42Q1535.92 889.74, 1641.6000000000004 928.06Q1695.85 838.31, 1785.6000000000004 892.56z" fill="rgba(68, 161, 160, 1)"></path><path d="M1756.8000000000002 1117L0 1117 L0 1099.77Q76.45 1032.22, 144 1108.68Q149.33 970.01, 288 975.34Q324.37 925.31, 374.4 961.68Q444.91 945.79, 460.79999999999995 1016.3Q488.99 958.1, 547.1999999999999 986.29Q645.41 940.5, 691.1999999999999 1038.71Q787.9 1049.01, 777.5999999999999 1145.71Q771.3 995.41, 921.5999999999999 989.12Q952.41 933.53, 1007.9999999999999 964.35Q1128 940.35, 1152 1060.35Q1243.26 1007.61, 1296 1098.86Q1301.39 1017.85, 1382.4 1023.23Q1406.95 961.38, 1468.8000000000002 985.92Q1572.8 945.91, 1612.8000000000002 1049.91Q1692.72 985.83, 1756.8000000000002 1065.74z" fill="rgba(120, 205, 215, 1)"></path></g><defs><mask id="SvgjsMask1007"><rect width="1728" height="1117" fill="#ffffff"></rect></mask></defs></svg>